<svg xmlns="http://www.w3.org/2000/svg" width="370" height="371" viewBox="0 0 370 371">
    <g fill="#FFF" fill-rule="nonzero">
        <path d="M77.217 319.81a2.944 2.944 0 1 0 0 5.888 2.944 2.944 0 0 0 0-5.888zM129.454 237.892a10.26 10.26 0 1 0 3.011 7.284 10.353 10.353 0 0 0-3.02-7.275l.01-.009zm-4.163 10.387a4.399 4.399 0 1 1-6.21-6.232 4.399 4.399 0 0 1 6.21 6.232z"/>
        <path d="M347.943 219.23l-4.204-.944 2.38-3.56a28.243 28.243 0 0 0 1.37-28.955 28.18 28.18 0 0 0-24.846-14.885h-85.762l11.998-35.648a46.707 46.707 0 0 0-2.734-36.231 46.62 46.62 0 0 0-27.863-23.282l-12.881-3.914a4.396 4.396 0 0 0-5.415 2.71l-20.238 55.994a71.948 71.948 0 0 1-33.254 38.722l-22.475 12.323-1.522-2.07a21.012 21.012 0 0 0-16.866-8.57H4.397A4.408 4.408 0 0 0 0 175.323v190.6a4.408 4.408 0 0 0 4.397 4.403h101.225a21.016 21.016 0 0 0 18.07-10.413l1.269-2.171 12.704 4.991a109.515 109.515 0 0 0 40.132 7.576h128.265a28.18 28.18 0 0 0 24.875-14.938 28.243 28.243 0 0 0-1.467-29.002l-2.362-3.51 4.111-1.002a28.169 28.169 0 0 0 19.685-17.339 28.218 28.218 0 0 0-3.12-26.062l-2.33-3.367 3.952-1.12c12.445-3.484 20.93-14.995 20.584-27.928-.346-12.934-9.433-23.974-22.047-26.787v-.025zm-6.155 46.995h-75.504a4.4 4.4 0 0 0-4.398 4.402 4.4 4.4 0 0 0 4.398 4.403h58.301c10.713 0 19.398 8.694 19.398 19.42 0 10.724-8.685 19.419-19.398 19.419H266.26a4.4 4.4 0 0 0-4.398 4.402 4.4 4.4 0 0 0 4.398 4.403h39.803c10.558.22 19.002 8.851 19.002 19.423 0 10.573-8.444 19.204-19.002 19.424H177.831c-12.636.011-25.16-2.36-36.92-6.986l-14.294-5.632v-74.117a4.4 4.4 0 0 0-4.397-4.403 4.4 4.4 0 0 0-4.398 4.403v74.58a12.17 12.17 0 0 1-3.59 8.592 12.143 12.143 0 0 1-8.61 3.53H8.828V179.666h96.794c6.697.01 12.124 5.442 12.133 12.147v24.95a4.4 4.4 0 0 0 4.398 4.402 4.4 4.4 0 0 0 4.397-4.402v-26.558l24.14-13.157a80.784 80.784 0 0 0 37.323-43.502l18.817-52.063 8.88 2.702a37.796 37.796 0 0 1 22.609 18.881 37.868 37.868 0 0 1 2.21 29.394l-13.931 41.457a4.407 4.407 0 0 0 .594 3.972 4.396 4.396 0 0 0 3.568 1.836h91.9c10.558.22 19.002 8.852 19.002 19.424s-8.444 19.203-19.002 19.424h-56.401a4.4 4.4 0 0 0-4.398 4.402 4.4 4.4 0 0 0 4.398 4.402h75.53c10.557.22 19.001 8.852 19.001 19.424s-8.444 19.204-19.002 19.424z"/>
        <path d="M94.845 322.746c0-9.755-7.908-17.662-17.662-17.662-9.754 0-17.662 7.907-17.662 17.662 0 9.754 7.908 17.662 17.662 17.662 9.754 0 17.662-7.908 17.662-17.662zm-17.662 8.83a8.831 8.831 0 1 1 8.831-8.83 8.84 8.84 0 0 1-8.797 8.83h-.034zM216.47 8.841a4.407 4.407 0 1 0 .017-8.814 4.407 4.407 0 0 0-.018 8.814z"/>
        <path d="M213.366 1.272a4.382 4.382 0 1 1-1.296 3.112 4.432 4.432 0 0 1 1.296-3.112zM216.47 27.42a4.407 4.407 0 0 0-4.4 4.399V49.69a4.399 4.399 0 0 0 8.798 0V31.819c0-2.43-1.97-4.4-4.399-4.4z"/>
        <path d="M220.868 49.69a4.399 4.399 0 0 1-8.798 0V31.82a4.399 4.399 0 0 1 8.798 0V49.69zM263.156 100.793c0 2.43 1.97 4.399 4.398 4.399h45.282a4.399 4.399 0 0 0 0-8.798h-45.282a4.407 4.407 0 0 0-4.398 4.399z"/>
        <path d="M317.235 100.793c0 2.43-1.97 4.399-4.399 4.399h-45.282a4.399 4.399 0 0 1 0-8.798h45.282c2.43 0 4.4 1.97 4.4 4.399zM120.085 105.175h45.282a4.399 4.399 0 0 0 0-8.797h-45.282a4.399 4.399 0 0 0 0 8.797z"/>
        <path d="M120.085 96.378h45.282a4.399 4.399 0 0 1 0 8.797h-45.282a4.399 4.399 0 0 1 0-8.797zM171.843 62.374a4.4 4.4 0 0 0 6.224-6.224l-21.38-21.38a4.4 4.4 0 0 0-6.223 6.224l21.38 21.38z"/>
        <path d="M150.464 34.77a4.424 4.424 0 0 1 6.223 0l21.38 21.38a4.4 4.4 0 0 1-6.224 6.224l-21.38-21.38a4.407 4.407 0 0 1 0-6.223zM257.983 63.678a4.399 4.399 0 0 0 3.112-1.287l21.38-21.38a4.4 4.4 0 0 0-6.224-6.223l-21.38 21.379a4.399 4.399 0 0 0 3.112 7.51z"/>
        <path d="M254.871 56.167l21.413-21.38a4.4 4.4 0 0 1 6.224 6.224l-21.413 21.38a4.4 4.4 0 0 1-6.224-6.224z"/>
    </g>
</svg>
