<svg xmlns="http://www.w3.org/2000/svg" width="475" height="443" viewBox="0 0 475 443">
    <path fill="#FFF" fill-rule="nonzero" d="M437.17 105.51l-2.5-.42V5.84a5 5 0 0 0-5-5h-56a5 5 0 0 0-3.26 8.83l54.26 46.51v48.95l-2.51.42c-18.881 3.143-33.677 17.939-36.82 36.82l-.42 2.51h-43.25a5 5 0 0 0-5 5v139h-27.8l1.95-4.25a42.18 42.18 0 0 0-38.37-59.75h-40.71l-11.14-11.21 92.74-100.47a5 5 0 0 0-.28-7.07 4.89 4.89 0 0 0-3.59-1.32 5 5 0 0 0-3.48 1.6l-92.47 100.26-49.12-49.17L233.54 73a5.011 5.011 0 1 0-7.77-6.33l-71 86.8c-25.851 6.353-44.94 26.263-50 51.35a5 5 0 0 0 1.36 4.49l79.41 79.49h-19.87a5 5 0 0 0-5 5v139h-33.29l3.67-4.82a36.85 36.85 0 0 0-29.31-59.18h-37.4l-13.67-20.49V69.84a5 5 0 1 0-10 0v275h-35a5 5 0 1 0 0 10H43l13.68 20.49v22.51a5 5 0 1 0 10 0v-19h22v19a5 5 0 1 0 10 0v-19h3c14.912 0 27 12.088 27 27s-12.088 27-27 27h-96a5 5 0 1 0 0 10h160a5 5 0 0 0 5-5v-139h171a5 5 0 0 0 5-5v-139h123a5 5 0 0 0 5-5c.07-21.98-15.822-40.762-37.51-44.33zm-139.9 182.16l-.9 1.08-96.63.13-84.64-84.66.48-1.69a56.31 56.31 0 0 1 38.78-38.78l1.69-.48 68.62 68.64v21.93a5 5 0 0 0 10 0v-19h22v19a5 5 0 0 0 10 0v-19h5.76a32.24 32.24 0 0 1 24.84 52.83zm89.88-276.83h37.52v32.12l-37.52-32.12zm77.24 134h-69.47l.94-3.73a34.86 34.86 0 0 1 9-16c13.82-13.247 35.618-13.274 49.47-.06a35 35 0 0 1 9.1 16.06l.96 3.73z"/>
</svg>
