<svg xmlns="http://www.w3.org/2000/svg" width="1442" height="26" viewBox="0 0 1442 26">
    <defs>
        <linearGradient id="a" x1="0%" x2="99.257%" y1="100%" y2=".743%">
            <stop offset="0%" stop-color="#F43533"/>
            <stop offset="100%" stop-color="#F46633"/>
        </linearGradient>
    </defs>
    <path fill="none" fill-rule="evenodd" stroke="url(#a)" stroke-width="4" d="M241 4124l35.119 20 35.119-20 35.121 20 35.12-20 35.12 20 35.122-20 35.12 20 35.119-20 35.121 20 35.12-20 35.122 20 35.122-20 35.122 20 35.122-20 35.121 20 35.121-20 35.121 20 35.115-20 35.119 20 35.123-20 35.118 20 35.119-20 35.118 20 35.12-20 35.121 20 35.124-20 35.121 20 35.123-20 35.122 20 35.122-20 35.123 20 35.125-20 35.125 20 35.121-20 35.121 20 35.125-20 35.126 20 35.128-20 35.126 20 35.132-20 35.131 20" transform="translate(-240 -4121)"/>
</svg>
