<svg xmlns="http://www.w3.org/2000/svg" width="160" height="36" viewBox="0 0 160 36">
    <path fill="#FFF" fill-rule="nonzero" d="M148.156 11.883c-6.556 0-11.844 5.307-11.844 11.863v.078c0 6.556 5.308 11.864 11.844 11.864h2.556c.488 0 .878-.39.878-.878v-3.825a.874.874 0 0 0-.878-.878h-2.556a6.312 6.312 0 0 1-6.302-6.302 6.3 6.3 0 0 1 6.302-6.303 6.3 6.3 0 0 1 6.303 6.303v9.17c0 1.542 1.248 2.79 2.77 2.79a2.773 2.773 0 0 0 2.771-2.79v-9.248c0-6.517-5.307-11.844-11.844-11.844zm-109.21 0c-6.556 0-11.844 5.307-11.844 11.863v.078c0 6.556 5.308 11.864 11.844 11.864h2.556c.488 0 .878-.39.878-.878v-3.825a.874.874 0 0 0-.878-.878h-2.556a6.312 6.312 0 0 1-6.302-6.302 6.3 6.3 0 0 1 6.302-6.303 6.312 6.312 0 0 1 6.303 6.303v9.17c0 1.542 1.249 2.79 2.77 2.79a2.773 2.773 0 0 0 2.771-2.79v-9.248c.02-6.517-5.288-11.844-11.844-11.844zm-27.102.097H9.288a.874.874 0 0 0-.878.879v3.824c0 .488.39.878.878.878h2.556a6.312 6.312 0 0 1 6.302 6.302 6.3 6.3 0 0 1-6.302 6.303 6.312 6.312 0 0 1-6.303-6.303V2.79C5.541 1.25 4.293 0 2.771 0A2.773 2.773 0 0 0 0 2.79v21.171c0 6.556 5.307 11.863 11.844 11.863 6.556 0 11.844-5.307 11.844-11.863v-.078c.02-6.595-5.288-11.903-11.844-11.903zm54.536-.097c-6.556 0-11.843 5.307-11.843 11.863v5.522c0 .488.39.878.878.878h3.824c.488 0 .878-.39.878-.878v-5.424a6.3 6.3 0 0 1 6.303-6.303 6.312 6.312 0 0 1 6.302 6.303v3.512c0 1.542 1.249 2.79 2.77 2.79a2.773 2.773 0 0 0 2.771-2.79v-3.61c-.02-6.536-5.326-11.863-11.883-11.863zm38.342 5.737h-3.824a.874.874 0 0 0-.878.878v5.424a6.3 6.3 0 0 1-6.303 6.302 6.312 6.312 0 0 1-6.302-6.302V20.41c0-1.542-1.25-2.79-2.771-2.79a2.773 2.773 0 0 0-2.77 2.79v3.61c0 6.556 5.306 11.863 11.843 11.863 6.556 0 11.844-5.307 11.844-11.863v-5.522c.039-.488-.351-.878-.839-.878zm16.293-5.64h-2.556a.874.874 0 0 0-.879.879v3.824c0 .488.39.878.879.878h2.556a6.312 6.312 0 0 1 6.302 6.302 6.3 6.3 0 0 1-6.302 6.303 6.312 6.312 0 0 1-6.303-6.303V2.79c0-1.541-1.249-2.79-2.77-2.79a2.773 2.773 0 0 0-2.771 2.79v21.171c0 6.556 5.307 11.863 11.844 11.863 6.556 0 11.844-5.307 11.844-11.863v-.078c0-6.595-5.308-11.903-11.844-11.903z"/>
</svg>
