<svg xmlns="http://www.w3.org/2000/svg" width="12" height="21" viewBox="0 0 12 21">
    <path fill="#FFF" fill-rule="nonzero" d="M11.34.004L8.52 0c-3.171 0-5.22 1.989-5.22 5.067v2.336H.46a.432.432 0 0 0-.444.42v3.384c0 .232.2.42.444.42H3.3v8.54c0 .232.198.42.444.42h3.702a.432.432 0 0 0 .444-.42v-8.54h3.318a.432.432 0 0 0 .443-.42l.002-3.384a.41.41 0 0 0-.13-.297.457.457 0 0 0-.314-.123h-3.32v-1.98c0-.952.24-1.436 1.551-1.436h1.901a.432.432 0 0 0 .444-.42V.424a.432.432 0 0 0-.443-.42z" opacity=".9"/>
</svg>
