<svg xmlns="http://www.w3.org/2000/svg" width="21" height="20" viewBox="0 0 21 20">
    <g fill="#FFF" fill-rule="nonzero" opacity=".9">
        <path d="M14.9 0H6.1C2.737 0 0 2.606 0 5.81v8.38C0 17.394 2.737 20 6.1 20h8.8c3.363 0 6.1-2.606 6.1-5.81V5.81C21 2.606 18.263 0 14.9 0zm4.46 14.19c0 2.342-2.001 4.248-4.46 4.248H6.1c-2.459 0-4.46-1.906-4.46-4.248V5.81c0-2.342 2.001-4.247 4.46-4.247h8.8c2.459 0 4.46 1.905 4.46 4.247v8.38z"/>
        <path d="M10.5 4.61c-3.121 0-5.66 2.418-5.66 5.39 0 2.972 2.539 5.39 5.66 5.39s5.66-2.418 5.66-5.39c0-2.972-2.539-5.39-5.66-5.39zm0 9.218c-2.216 0-4.02-1.717-4.02-3.828 0-2.11 1.804-3.828 4.02-3.828 2.216 0 4.02 1.717 4.02 3.828 0 2.11-1.804 3.828-4.02 3.828z"/>
        <ellipse cx="16.242" cy="4.531" rx="1" ry="1"/>
    </g>
</svg>
