<svg xmlns="http://www.w3.org/2000/svg" width="17" height="17" viewBox="0 0 17 17">
    <path fill="#FFF" fill-rule="nonzero" d="M15.3 0H1.7C.765 0 0 .765 0 1.7v13.6c0 .935.765 1.7 1.7 1.7h13.6c.935 0 1.7-.765 1.7-1.7V1.7c0-.935-.765-1.7-1.7-1.7zM5.95 14.45h-3.4V6.8h3.4v7.65zM3.995 5.695c-.944 0-1.7-.756-1.7-1.7s.756-1.7 1.7-1.7 1.7.756 1.7 1.7-.756 1.7-1.7 1.7zM14.45 14.45H11.9V9.945c0-.68-.595-1.275-1.275-1.275-.68 0-1.275.595-1.275 1.275v4.505H6.8V6.8h2.55v1.02c.425-.68 1.36-1.19 2.125-1.19 1.615 0 2.975 1.36 2.975 2.975v4.845z" opacity=".9"/>
</svg>
