<svg xmlns="http://www.w3.org/2000/svg" width="24" height="20" viewBox="0 0 24 20">
    <path fill="#FFF" fill-rule="nonzero" d="M24 2.278a9.986 9.986 0 0 1-2.827.76A4.865 4.865 0 0 0 23.337.37c-.954.553-2.007.954-3.128 1.172A4.956 4.956 0 0 0 16.615.017c-2.719 0-4.923 2.161-4.923 4.826 0 .377.043.746.127 1.1A14.072 14.072 0 0 1 1.672.898a4.719 4.719 0 0 0-.666 2.426 4.8 4.8 0 0 0 2.19 4.017 4.999 4.999 0 0 1-2.23-.606v.06c0 2.338 1.698 4.29 3.949 4.733a5.08 5.08 0 0 1-1.298.17c-.318 0-.625-.031-.926-.09.626 1.919 2.444 3.314 4.598 3.352a10.004 10.004 0 0 1-6.115 2.063c-.397 0-.789-.023-1.174-.066a14.12 14.12 0 0 0 7.547 2.172c9.056 0 14.007-7.355 14.007-13.733l-.017-.625A9.728 9.728 0 0 0 24 2.278z" opacity=".9"/>
</svg>
