<svg xmlns="http://www.w3.org/2000/svg" width="26" height="17" viewBox="0 0 26 17">
    <path fill="#FFF" fill-rule="nonzero" d="M24.895 1.609C24.19.437 23.425.222 21.866.139 20.309.042 16.395 0 13.003 0 9.605 0 5.69.041 4.134.138 2.579.222 1.812.436 1.1 1.608.374 2.78 0 4.796 0 8.345c0 3.545.374 5.576 1.1 6.734.712 1.172 1.477 1.385 3.032 1.483 1.557.085 5.473.135 8.871.135 3.392 0 7.306-.05 8.865-.133 1.558-.099 2.323-.311 3.029-1.483C25.63 13.922 26 11.89 26 8.357c0-3.562-.37-5.578-1.105-6.748zM9.75 12.902V3.795l8.125 4.553-8.125 4.554z" opacity=".9"/>
</svg>
